<svg xmlns="http://www.w3.org/2000/svg" width="240" height="120" viewBox="0 0 240 120">
    <g fill="none" fill-rule="evenodd">
        <g fill="#FFF" fill-rule="nonzero">
            <g>
                <g>
                    <g>
                        <g>
                            <path d="M22.022 51.84c4.718 0 8.675-1.4 11.87-4.202 3.195-2.802 4.792-6.44 4.792-10.912 0-5.063-2.113-8.946-6.34-11.65 2.998-2.604 4.497-5.971 4.497-10.1 0-4.375-1.56-7.926-4.682-10.654C29.04 1.594 25.167.23 20.547.23H3.802C1.892.23.346 1.778.346 3.686v44.698c0 1.909 1.547 3.456 3.456 3.456h18.22zM11.796 19.856v-7.99c0-.319.258-.576.576-.576h7.83c1.327 0 2.408.43 3.244 1.29.835.86 1.253 1.954 1.253 3.28 0 1.328-.418 2.421-1.253 3.282-.836.86-1.917 1.29-3.245 1.29h-7.829c-.318 0-.576-.258-.576-.576zm0 20.349v-8.728c0-.318.258-.576.576-.576h9.304c1.475 0 2.654.455 3.539 1.364.885.91 1.327 2.101 1.327 3.576s-.442 2.667-1.327 3.576c-.885.91-2.064 1.364-3.539 1.364h-9.304c-.318 0-.576-.258-.576-.576zm48.384 8.179v-12.35c0-.636.516-1.151 1.152-1.151h3.785c.412 0 .793.22.999.578l8.404 14.643c.616 1.074 1.76 1.736 2.997 1.736h6.681c1.273 0 2.304-1.032 2.304-2.304 0-.406-.107-.805-.31-1.156l-8.98-15.488c2.85-1.475 5.148-3.551 6.893-6.23 1.745-2.679 2.618-5.591 2.618-8.737 0-4.915-1.72-9.093-5.161-12.534-3.441-3.44-7.619-5.16-12.534-5.16H51.84c-1.909 0-3.456 1.547-3.456 3.455v44.698c0 1.909 1.547 3.456 3.456 3.456h4.884c1.91 0 3.456-1.547 3.456-3.456zm0-24.4V11.867c0-.319.258-.576.576-.576h8.272c1.622 0 3.01.639 4.165 1.917 1.156 1.277 1.733 2.85 1.733 4.718 0 1.868-.577 3.44-1.733 4.719-1.155 1.278-2.543 1.917-4.165 1.917h-8.272c-.318 0-.576-.258-.576-.576zm44.241 26.02l1.942-6.103c.076-.24.298-.401.55-.401h18.326c.25 0 .473.162.549.4l1.942 6.104c.304.956 1.192 1.606 2.195 1.606h8.001c1.273 0 2.304-1.032 2.304-2.304 0-.253-.041-.503-.122-.742l-15.715-46.22C123.916.942 122.6 0 121.12 0h-10.09c-1.48 0-2.796.942-3.273 2.344l-15.714 46.22c-.41 1.205.234 2.513 1.44 2.923.238.081.489.123.74.123h8.002c1.003 0 1.891-.65 2.195-1.606zm16.91-17.564h-10.515c-.318 0-.576-.258-.576-.576 0-.06.01-.118.027-.175l5.257-16.477c.097-.303.421-.47.724-.374.178.057.317.196.374.374l5.257 16.477c.097.303-.07.627-.373.724-.057.018-.116.027-.175.027zm35.617 17.096v-24.99c0-.128.104-.231.23-.231.075 0 .145.036.189.097l18.8 26.458c.431.609 1.131.97 1.877.97h5.354c1.273 0 2.304-1.032 2.304-2.304V2.534c0-1.272-1.031-2.304-2.304-2.304h-7.188c-1.273 0-2.304 1.032-2.304 2.304v24.991c0 .127-.103.23-.23.23-.075 0-.145-.036-.188-.097L154.688 1.2c-.432-.608-1.132-.97-1.878-.97h-5.354c-1.272 0-2.304 1.032-2.304 2.304v47.002c0 1.272 1.032 2.304 2.304 2.304h7.188c1.273 0 2.304-1.032 2.304-2.304zm56.863 2.304c7.127 0 13.087-2.47 17.88-7.41 4.792-4.94 7.188-11.071 7.188-18.395 0-7.323-2.396-13.455-7.189-18.395C226.898 2.7 220.938.23 213.811.23h-17.188c-1.908 0-3.456 1.548-3.456 3.456v44.698c0 1.909 1.548 3.456 3.456 3.456h17.188zm-8.847-12.506V12.737c0-.637.516-1.152 1.152-1.152h7.695c4.08 0 7.385 1.314 9.917 3.944 2.53 2.63 3.797 6.132 3.797 10.506 0 4.375-1.266 7.877-3.797 10.506-2.532 2.63-5.837 3.945-9.917 3.945h-7.695c-.636 0-1.152-.516-1.152-1.152zM12.2 112.896V89.057c0-.127.103-.23.23-.23.075 0 .145.036.188.097l18.8 26.458c.432.609 1.131.97 1.878.97h4.202c1.908 0 3.456-1.547 3.456-3.456V68.198c0-1.908-1.548-3.456-3.456-3.456h-4.885c-1.909 0-3.456 1.548-3.456 3.456v23.839c0 .127-.103.23-.23.23-.075 0-.145-.036-.188-.097l-18.8-26.458c-.432-.608-1.132-.97-1.878-.97H3.86c-1.908 0-3.456 1.548-3.456 3.456v44.698c0 1.909 1.548 3.456 3.456 3.456h4.885c1.908 0 3.456-1.547 3.456-3.456zm56.09 4.488c5.8 0 10.568-1.597 14.304-4.792 3.735-3.195 5.603-7.496 5.603-12.903V68.2c0-1.91-1.547-3.457-3.456-3.457h-4.884c-1.91 0-3.456 1.548-3.456 3.456v30.46c0 4.816-2.704 7.225-8.11 7.225-5.407 0-8.11-2.409-8.11-7.226V68.198c0-1.908-1.548-3.456-3.457-3.456H51.84c-1.909 0-3.456 1.548-3.456 3.456V99.69c0 5.407 1.868 9.708 5.603 12.903 3.736 3.195 8.504 4.792 14.304 4.792zm47.97-1.032c7.127 0 13.087-2.47 17.879-7.41 4.792-4.94 7.188-11.071 7.188-18.395 0-7.323-2.396-13.455-7.188-18.395-4.792-4.94-10.752-7.41-17.88-7.41H99.073c-1.909 0-3.456 1.548-3.456 3.456v44.698c0 1.909 1.547 3.456 3.456 3.456h17.188zm-8.848-11.93v-27.75c0-.318.258-.575.576-.575h8.272c4.08 0 7.385 1.314 9.916 3.944 2.532 2.63 3.797 6.132 3.797 10.506 0 4.375-1.265 7.877-3.797 10.506-2.531 2.63-5.837 3.945-9.916 3.945h-8.272c-.318 0-.576-.258-.576-.576zm127.463 1.447c1.909 0 3.456 1.547 3.456 3.456v4.608c0 1.908-1.547 3.456-3.456 3.456h-27.648c-1.908 0-3.456-1.548-3.456-3.456v-4.608c0-1.909 1.548-3.456 3.456-3.456h27.648zM172.21 63.36c4.817 0 9.228 1.081 13.234 3.244 4.006 2.163 7.115 5.014 9.327 8.552 2.212 3.54-8.897 7.52-10.027 5.751-1.13-1.77-2.814-3.22-5.05-4.35-2.237-1.13-4.756-1.695-7.558-1.695-4.374 0-7.999 1.45-10.874 4.35-2.876 2.9-4.314 6.61-4.314 11.132 0 4.473 1.475 8.123 4.424 10.95 2.95 2.825 6.881 4.238 11.797 4.238 6.832 0 11.575-2.674 13.197-10.312h-10.331c-1.909 0-3.456-1.548-3.456-3.456v-3.41c0-1.909 1.547-3.456 3.456-3.456H195c1.909 0 3.456 1.547 3.456 3.456v.967c0 7.717-2.396 16.224-7.188 20.82-4.792 4.595-10.875 6.893-18.248 6.893-8.012 0-14.66-2.58-19.943-7.741-5.284-5.161-7.926-11.502-7.926-19.022 0-7.52 2.617-13.886 7.852-19.096 5.235-5.21 11.637-7.815 19.206-7.815zm49.993 21.888c1.909 0 3.456 1.547 3.456 3.456v3.456c0 1.909-1.547 3.456-3.456 3.456h-14.976c-1.908 0-3.456-1.547-3.456-3.456v-3.456c0-1.909 1.548-3.456 3.456-3.456h14.976zm12.672-21.542c1.909 0 3.456 1.547 3.456 3.456v4.608c0 1.908-1.547 3.456-3.456 3.456h-27.648c-1.908 0-3.456-1.548-3.456-3.456v-4.608c0-1.91 1.548-3.456 3.456-3.456h27.648z" transform="translate(-91 -340) translate(0 164) translate(53 82) translate(0 42) translate(38 52)"/>
                        </g>
                    </g>
                </g>
            </g>
        </g>
    </g>
</svg>
