<svg xmlns="http://www.w3.org/2000/svg" viewBox="0 0 415.65 415.65"><defs><style>.cls-1{fill:#fff;}</style></defs><title>3</title><g id="Layer_2" data-name="Layer 2"><g id="Layer_1-2" data-name="Layer 1"><path class="cls-1" d="M207.83,0C93.23,0,0,93.23,0,207.83S93.23,415.65,207.83,415.65s207.82-93.23,207.82-207.82S322.42,0,207.83,0Zm0,405.65C98.74,405.65,10,316.91,10,207.83S98.74,10,207.83,10,405.65,98.74,405.65,207.83,316.91,405.65,207.83,405.65Z"/><polygon class="cls-1" points="324.88 232.72 312.56 232.38 312.56 246.93 324.88 246.6 324.88 232.72"/><polygon class="cls-1" points="340.43 233.14 329.88 232.85 329.88 246.46 340.43 246.18 340.43 233.14"/><polygon class="cls-1" points="354.64 250.79 345.43 251.04 345.43 264.59 354.64 263.75 354.64 250.79"/><polygon class="cls-1" points="354.64 215.56 345.43 214.73 345.43 228.27 354.64 228.52 354.64 215.56"/><polygon class="cls-1" points="354.64 233.53 345.43 233.28 345.43 246.04 354.64 245.79 354.64 233.53"/><polygon class="cls-1" points="340.43 251.18 329.88 251.47 329.88 266 340.43 265.04 340.43 251.18"/><polygon class="cls-1" points="340.43 270.06 329.88 271.02 329.88 283.88 340.43 282.29 340.43 270.06"/><polygon class="cls-1" points="354.64 268.77 345.43 269.61 345.43 281.53 354.64 280.14 354.64 268.77"/><polygon class="cls-1" points="354.64 199.18 345.43 197.79 345.43 209.71 354.64 210.54 354.64 199.18"/><polygon class="cls-1" points="340.43 197.03 329.88 195.44 329.88 208.3 340.43 209.25 340.43 197.03"/><polygon class="cls-1" points="340.43 214.28 329.88 213.32 329.88 227.85 340.43 228.14 340.43 214.28"/><polygon class="cls-1" points="324.88 212.87 312.56 211.75 312.56 227.38 324.88 227.72 324.88 212.87"/><polygon class="cls-1" points="324.88 251.6 312.56 251.94 312.56 267.57 324.88 266.45 324.88 251.6"/><polygon class="cls-1" points="324.88 271.47 312.56 272.59 312.56 286.5 324.88 284.63 324.88 271.47"/><polygon class="cls-1" points="324.88 194.68 312.56 192.82 312.56 206.73 324.88 207.84 324.88 194.68"/><polygon class="cls-1" points="111.36 208.75 143.03 208.04 143.03 179.27 111.36 178.56 111.36 208.75"/><polygon class="cls-1" points="149.96 207.88 177.67 207.27 177.67 180.04 149.96 179.43 149.96 207.88"/><polygon class="cls-1" points="216.02 238.82 238.53 237.15 238.53 211.6 216.02 212.1 216.02 238.82"/><polygon class="cls-1" points="184.6 241.16 209.59 239.3 209.59 212.24 184.6 212.8 184.6 241.16"/><polygon class="cls-1" points="269.95 205.21 288.51 204.79 288.51 182.52 269.95 182.1 269.95 205.21"/><polygon class="cls-1" points="244.47 205.77 264.51 205.33 264.51 181.98 244.47 181.54 244.47 205.77"/><polygon class="cls-1" points="216.02 206.41 238.53 205.91 238.53 181.4 216.02 180.9 216.02 206.41"/><polygon class="cls-1" points="244.47 236.71 264.51 235.22 264.51 211.02 244.47 211.47 244.47 236.71"/><polygon class="cls-1" points="269.95 234.81 288.51 233.43 288.51 210.48 269.95 210.9 269.95 234.81"/><polygon class="cls-1" points="269.95 176.41 288.51 176.83 288.51 153.88 269.95 152.5 269.95 176.41"/><polygon class="cls-1" points="244.47 175.84 264.51 176.29 264.51 152.09 244.47 150.6 244.47 175.84"/><polygon class="cls-1" points="216.02 175.21 238.53 175.71 238.53 150.16 216.02 148.49 216.02 175.21"/><polygon class="cls-1" points="184.6 174.51 209.59 175.07 209.59 148.01 184.6 146.15 184.6 174.51"/><polygon class="cls-1" points="184.6 207.11 209.59 206.55 209.59 180.76 184.6 180.2 184.6 207.11"/><polygon class="cls-1" points="149.96 243.74 177.67 241.68 177.67 212.96 149.96 213.58 149.96 243.74"/><polygon class="cls-1" points="184.6 272.28 209.59 269.18 209.59 245.01 184.6 246.88 184.6 272.28"/><polygon class="cls-1" points="216.02 268.38 238.53 265.59 238.53 242.86 216.02 244.54 216.02 268.38"/><polygon class="cls-1" points="244.47 264.85 264.51 262.37 264.51 240.93 244.47 242.42 244.47 264.85"/><polygon class="cls-1" points="269.95 261.69 288.51 259.39 288.51 239.14 269.95 240.52 269.95 261.69"/><polygon class="cls-1" points="345.66 135.01 333.54 133.51 333.54 151.52 345.66 152.42 345.66 135.01"/><polygon class="cls-1" points="329.58 133.02 314.98 131.21 314.98 150.14 329.58 151.22 329.58 133.02"/><polygon class="cls-1" points="310.53 130.65 293.46 128.53 293.46 148.54 310.53 149.81 310.53 130.65"/><polygon class="cls-1" points="269.95 146.79 288.51 148.17 288.51 127.92 269.95 125.62 269.95 146.79"/><polygon class="cls-1" points="244.47 144.89 264.51 146.38 264.51 124.94 244.47 122.46 244.47 144.89"/><polygon class="cls-1" points="216.02 142.77 238.53 144.45 238.53 121.72 216.02 118.93 216.02 142.77"/><polygon class="cls-1" points="184.6 140.44 209.59 142.29 209.59 118.13 184.6 115.03 184.6 140.44"/><polygon class="cls-1" points="149.96 137.86 177.67 139.92 177.67 114.17 149.96 110.73 149.96 137.86"/><polygon class="cls-1" points="149.96 173.74 177.67 174.35 177.67 145.63 149.96 143.57 149.96 173.74"/><polygon class="cls-1" points="111.36 172.87 143.03 173.58 143.03 143.05 111.36 140.7 111.36 172.87"/><polygon class="cls-1" points="111.36 246.62 143.03 244.26 143.03 213.73 111.36 214.44 111.36 246.62"/><path class="cls-1" d="M364.22,160.21h-1.11V122.29c0-12.85-10.78-23.3-24-23.3H88.29C75,99,64.24,109.44,64.24,122.29V275.8H40.43v16.11a24.07,24.07,0,0,0,24.05,24H297a10.76,10.76,0,0,0,3.86.72h63.36a11,11,0,0,0,11-11V171.21A11,11,0,0,0,364.22,160.21ZM64.48,306a14.06,14.06,0,0,1-14.05-14V285.8H289.86v19.87c0,.09,0,.19,0,.28Zm229-151.7v8.84a10.94,10.94,0,0,0-3.6,8.12V275.8H156.26l21.41-2.66V247.39L150,249.45V275.8H143V250l-31.67,2.36V275.8h-6.92V252.47l-30.2-2.24v-5.72l30.2,2.25V214.48l-30.2-.67v-5.69l30.2.67V178.52l-30.2.67V173.5l30.2-.67V140.55l-30.2,2.25v-5.72l30.2-2.24V109h6.92v26L143,137.34V109.87l-7.14-.88H339.07c7.74,0,14,6,14,13.3v13.65l-4-.5v17.24l4,.3v5.71l-4-.3v1.82h-3.47v-2.08l-12.12-.9v3h-4v-3.27L315,155.85v4.36h-4.45v-4.69Zm71.76,151.42a1,1,0,0,1-1,1H300.86a1,1,0,0,1-1-1V301h65.36Zm0-104.89-5.58-.85V211l5.58.5v5l-5.58-.5v12.64l5.58.15v5l-5.58-.15v12l5.58-.15v5l-5.58.16V263.3l5.58-.51v5l-5.58.51v11.06l5.58-.84V291H299.86v-5.71l7.7,1.56v-14.2l-7.7-.7v-5l7.7.7V252l-7.7-.21v-5l7.7.21v-14.6l-7.7.21v-5l7.7-.21V211.67l-7.7.7v-5l7.7-.7v-14.2l-7.7,1.61v-8.21h65.36Zm0-24.93H299.86v-4.64a1,1,0,0,1,1-1h63.36a1,1,0,0,1,1,1Z"/></g></g></svg>