<svg xmlns="http://www.w3.org/2000/svg" width="24" height="24" viewBox="0 0 24 24">
    <g fill="none" fill-rule="evenodd">
        <rect width="24" height="24" fill="#78D988" fill-rule="nonzero" rx="2"/>
        <path fill="#F5FCE7" d="M5.097 16.308c2.144 1.238 4.577 1.89 7.053 1.89 1.852-.009 3.683-.387 5.386-1.111.264-.114.485.175.227.369-1.563 1.162-3.827 1.783-5.777 1.783-2.607.01-5.124-.961-7.05-2.72-.15-.133-.014-.314.161-.211zm13.983-.116c.171.212-.045 1.697-.883 2.4-.13.109-.252.052-.195-.092.189-.476.61-1.541.41-1.8v.006c-.199-.258-1.32-.122-1.823-.062-.15.018-.177-.115-.038-.213.9-.635 2.358-.45 2.529-.239zM12.126 4.87c.929 0 2.144.248 2.876.947.873.813.845 1.883.839 3.051l-.001 3.183c0 .684.22 1.074.48 1.436l.16.216c.028.036.055.072.081.109.122.173.15.378 0 .504-.39.327-1.082.925-1.463 1.263l-.011-.005c-.126.109-.305.126-.45.046-.635-.525-.75-.768-1.095-1.268-1.05 1.063-1.79 1.381-3.15 1.381-1.606 0-2.85-.987-2.85-2.962 0-1.542.838-2.592 2.036-3.107 1.035-.45 2.482-.534 3.589-.658V8.76c0-.45.034-.989-.232-1.378-.233-.35-.68-.494-1.072-.494-.729 0-1.375.37-1.534 1.142-.02.176-.156.318-.332.348L8.143 8.18c-.092-.013-.174-.062-.228-.138-.054-.075-.075-.17-.057-.26.426-2.232 2.452-2.912 4.269-2.912zm1.037 5.658c-1.382 0-2.84.296-2.84 1.915 0 .823.429 1.378 1.161 1.378.536 0 1.02-.329 1.32-.864.377-.666.358-1.275.358-2.016z"/>
    </g>
</svg>
