<svg xmlns="http://www.w3.org/2000/svg" width="24" height="24" viewBox="0 0 24 24">
    <g fill="none" fill-rule="evenodd">
        <g>
            <g>
                <g>
                    <g transform="translate(-905 -586) translate(150 199) translate(83 387) translate(672)">
                        <rect width="23.85" height="23.85" fill="#EFEFEF" fill-rule="nonzero" rx="2"/>
                        <path fill="#F90" d="M17.727 17.421c-1.553 1.155-3.804 1.779-5.74 1.779-2.594.012-5.098-.952-7.014-2.7-.15-.132-.016-.314.16-.21 2.134 1.23 4.554 1.875 7.017 1.87 1.84-.009 3.66-.384 5.352-1.105.264-.113.483.174.227.366h-.002z"/>
                        <path fill="#F90" d="M18.372 16.675c-.198-.256-1.313-.121-1.812-.061-.15.02-.175-.114-.039-.212.888-.63 2.345-.45 2.514-.236.17.212-.044 1.686-.878 2.389-.128.108-.25.051-.193-.091.188-.473.6-1.532.408-1.788z"/>
                        <path fill="#000" fill-rule="nonzero" d="M12.124 4.915c.925 0 2.13.245 2.85.941.923.858.835 2.004.835 3.25v2.944c0 .884.368 1.273.717 1.75.12.172.15.377 0 .502-.387.323-1.076.918-1.454 1.255l-.004-.002c-.126.108-.306.126-.45.045-.63-.522-.743-.764-1.088-1.26-1.041 1.05-1.779 1.374-3.127 1.374-1.598 0-2.84-.981-2.84-2.944 0-1.534.834-2.576 2.023-3.088 1.03-.45 2.466-.532 3.567-.654V8.78c0-.45.035-.981-.23-1.37-.232-.348-.675-.49-1.066-.49-.723 0-1.366.369-1.523 1.133-.022.176-.155.317-.329.347l-1.839-.198c-.091-.012-.173-.061-.227-.136-.054-.075-.074-.168-.056-.259.423-2.221 2.437-2.892 4.241-2.892zm1.031 5.625c-1.372 0-2.821.293-2.821 1.903 0 .817.425 1.369 1.153 1.369.533 0 1.012-.327 1.313-.858.371-.654.355-1.268.355-2.004z"/>
                    </g>
                </g>
            </g>
        </g>
    </g>
</svg>
