<?xml version="1.0" encoding="UTF-8"?>
<svg xmlns="http://www.w3.org/2000/svg" xmlns:xlink="http://www.w3.org/1999/xlink" width="24px" height="24px" viewBox="0 0 24 24" version="1.1">
<defs>
<clipPath id="clip1">
  <path d="M 2 0.0195312 L 21.984375 0.0195312 C 23.085938 0.0195312 23.980469 0.910156 23.980469 2.015625 L 23.980469 21.996094 C 23.980469 23.101562 23.085938 23.992188 21.984375 23.992188 L 2 23.992188 C 0.898438 23.992188 0.00390625 23.101562 0.00390625 21.996094 L 0.00390625 2.015625 C 0.00390625 0.910156 0.898438 0.0195312 2 0.0195312 Z M 2 0.0195312 "/>
</clipPath>
</defs>
<g id="surface1">
<path style=" stroke:none;fill-rule:nonzero;fill:rgb(25.882353%,22.745098%,57.254902%);fill-opacity:1;" d="M 2 0.0195312 L 21.984375 0.0195312 C 23.085938 0.0195312 23.980469 0.910156 23.980469 2.015625 L 23.980469 21.996094 C 23.980469 23.101562 23.085938 23.992188 21.984375 23.992188 L 2 23.992188 C 0.898438 23.992188 0.00390625 23.101562 0.00390625 21.996094 L 0.00390625 2.015625 C 0.00390625 0.910156 0.898438 0.0195312 2 0.0195312 Z M 2 0.0195312 "/>
<g clip-path="url(#clip1)" clip-rule="nonzero">
<rect x="0" y="0" width="24" height="24" style="fill:rgb(0%,40%,60%);fill-opacity:1;stroke:none;"/>
</g>
<path style=" stroke:none;fill-rule:nonzero;fill:rgb(96.862745%,56.078431%,11.764706%);fill-opacity:1;" d="M 21.210938 0.0195312 L 15.316406 7.5 C 15.382812 7.5 15.457031 7.5 15.519531 7.5 C 15.808594 7.5 16.042969 7.527344 16.234375 7.589844 L 23.414062 0.625 C 23.015625 0.113281 22.246094 -0.0546875 21.210938 0.0195312 Z M 17.390625 0.0195312 L 13.699219 7.917969 C 13.933594 7.804688 14.171875 7.714844 14.425781 7.640625 L 19.296875 0.0195312 L 17.386719 0.0195312 Z M 6.742188 8.699219 L 7.140625 8.929688 C 7.316406 8.902344 7.488281 8.882812 7.664062 8.882812 C 7.878906 8.882812 8.082031 8.894531 8.28125 8.917969 L 6.871094 7.839844 C 6.835938 8.085938 6.792969 8.367188 6.746094 8.691406 Z M 13.6875 2.320312 L 12.644531 8.105469 C 12.757812 8.167969 12.859375 8.257812 12.945312 8.355469 C 12.980469 8.332031 13.015625 8.308594 13.050781 8.285156 L 15.792969 0.0195312 L 14.113281 0.0195312 L 13.6875 2.324219 Z M 23.984375 2.5 L 16.871094 7.996094 C 16.898438 8.03125 16.925781 8.066406 16.949219 8.105469 C 17.515625 7.558594 18.476562 6.921875 19.832031 6.921875 C 19.933594 6.921875 20.035156 6.921875 20.136719 6.933594 L 23.984375 4.664062 M 4.71875 0.0195312 L 10.109375 8.835938 C 10.242188 8.75 10.371094 8.671875 10.503906 8.59375 L 6.734375 0.0195312 Z M 0.00390625 4.757812 L 2.464844 6.199219 C 2.765625 5.855469 3.25 5.621094 3.730469 5.449219 L 0.00390625 2.601562 Z M 2.167969 2.320312 L 5.015625 5.09375 C 5.285156 5.039062 5.535156 5.003906 5.703125 5.003906 C 6.960938 5.003906 7.0625 5.992188 7.0625 6.300781 C 7.0625 6.390625 7.039062 6.585938 6.984375 7.011719 L 9.179688 9.152344 C 9.277344 9.1875 9.367188 9.230469 9.457031 9.273438 C 9.472656 9.261719 9.492188 9.242188 9.507812 9.230469 C 9.507812 9.230469 9.597656 9.164062 9.742188 9.070312 L 2.550781 0.0195312 L 1.976562 0.0195312 C 1.308594 0.0429688 0.769531 0.324219 0.496094 0.707031 Z M 11.710938 8.027344 C 11.851562 7.984375 11.992188 7.960938 12.097656 7.960938 C 12.105469 7.960938 12.109375 7.960938 12.117188 7.960938 L 12.753906 0.0195312 L 11.167969 0.0195312 L 11.714844 8.027344 Z M 8.167969 0.0195312 L 10.984375 8.332031 C 11.09375 8.277344 11.207031 8.222656 11.320312 8.175781 L 9.742188 0.0195312 Z M 18.507812 14.355469 C 18.507812 14.285156 18.507812 14.183594 18.507812 14.0625 L 18.015625 13.910156 C 18.007812 14.285156 17.996094 14.554688 17.996094 14.734375 L 18.601562 15.003906 C 18.542969 14.828125 18.507812 14.621094 18.507812 14.355469 Z M 14.082031 12.910156 C 14.082031 12.839844 14.089844 12.773438 14.089844 12.703125 L 13.597656 12.550781 C 13.597656 12.625 13.597656 12.703125 13.589844 12.777344 L 14.078125 12.996094 C 14.078125 12.996094 14.078125 12.941406 14.078125 12.917969 Z M 18.558594 12.382812 L 18.050781 12.355469 C 18.050781 12.605469 18.039062 12.84375 18.039062 13.054688 L 18.535156 13.144531 C 18.535156 12.90625 18.554688 12.648438 18.558594 12.382812 Z M 14.070312 13.265625 L 13.585938 12.972656 C 13.585938 13.054688 13.578125 13.140625 13.574219 13.222656 L 14.054688 13.601562 C 14.054688 13.492188 14.066406 13.371094 14.066406 13.257812 Z M 2.851562 7.894531 C 2.8125 7.875 2.773438 7.851562 2.730469 7.820312 L 0.00390625 6.597656 L 0.00390625 8.242188 L 2.597656 9.058594 C 2.675781 8.667969 2.761719 8.285156 2.851562 7.894531 Z M 14.144531 10.914062 L 13.640625 11.136719 C 13.640625 11.183594 13.640625 11.246094 13.640625 11.316406 L 14.144531 11.160156 C 14.144531 11.058594 14.144531 10.976562 14.144531 10.914062 Z M 2.359375 10.226562 L 0.00390625 9.800781 L 0.00390625 11.246094 L 2.144531 11.382812 C 2.207031 11 2.285156 10.609375 2.359375 10.230469 Z M 7.070312 13.539062 L 5.984375 13.875 C 5.929688 14.300781 5.902344 14.566406 5.882812 14.722656 L 6.777344 14.320312 C 6.894531 14.105469 7.003906 13.839844 7.070312 13.539062 Z M 18.609375 11.035156 C 18.609375 10.910156 18.621094 10.796875 18.621094 10.6875 L 18.082031 10.785156 L 18.082031 10.945312 C 18.074219 11.132812 18.070312 11.3125 18.070312 11.484375 L 18.589844 11.453125 C 18.589844 11.3125 18.601562 11.171875 18.601562 11.039062 Z M 7.164062 12.726562 C 7.164062 12.5625 7.160156 12.425781 7.148438 12.304688 L 6.199219 12.359375 C 6.199219 12.359375 6.195312 12.378906 6.195312 12.390625 C 6.160156 12.648438 6.121094 12.875 6.09375 13.078125 L 7.160156 12.894531 C 7.160156 12.839844 7.164062 12.777344 7.164062 12.71875 Z M 14.039062 13.964844 L 13.5625 13.480469 C 13.5625 13.625 13.550781 13.773438 13.542969 13.910156 C 13.542969 13.925781 13.542969 13.9375 13.542969 13.941406 L 14.015625 14.566406 C 14.015625 14.390625 14.027344 14.1875 14.035156 13.960938 Z M 14.125 11.484375 L 13.628906 11.574219 C 13.628906 11.628906 13.628906 11.683594 13.628906 11.742188 L 14.125 11.710938 C 14.125 11.632812 14.125 11.554688 14.132812 11.484375 Z M 14.105469 12.097656 L 13.617188 12.066406 C 13.617188 12.125 13.617188 12.1875 13.609375 12.246094 L 14.101562 12.335938 C 14.101562 12.257812 14.101562 12.171875 14.105469 12.101562 Z M 1.742188 15.199219 L 0.00390625 15.742188 L 0.00390625 17.359375 L 2.105469 16.410156 C 1.886719 16.027344 1.777344 15.609375 1.742188 15.199219 Z M 17.167969 16.0625 L 23.980469 21.445312 L 23.980469 19.269531 L 17.871094 15.566406 C 17.746094 15.8125 17.511719 15.972656 17.167969 16.0625 Z M 1.945312 12.597656 L 0.00390625 12.707031 L 0.00390625 14.144531 L 1.789062 13.835938 C 1.824219 13.449219 1.878906 13.035156 1.949219 12.597656 Z M 14.132812 15.714844 L 13.519531 14.746094 C 13.507812 15.164062 13.496094 15.484375 13.496094 15.535156 L 13.496094 15.546875 C 13.496094 15.601562 13.496094 15.648438 13.496094 15.699219 L 17.515625 23.992188 L 19.394531 23.992188 L 14.328125 16.015625 C 14.257812 15.9375 14.191406 15.84375 14.136719 15.714844 Z M 15.816406 16.25 C 15.605469 16.28125 15.449219 16.296875 15.339844 16.308594 L 21.125 23.992188 C 22.292969 24.042969 23.0625 23.878906 23.335938 23.460938 L 16.230469 16.203125 C 16.089844 16.21875 15.953125 16.238281 15.816406 16.253906 Z M 22.523438 13.582031 C 22.617188 13.660156 22.746094 13.773438 22.839844 13.925781 L 23.992188 14.132812 L 23.980469 12.71875 L 22.503906 12.628906 C 22.503906 13.011719 22.503906 13.355469 22.523438 13.582031 Z M 21.71875 7.558594 C 22.042969 7.835938 22.277344 8.195312 22.414062 8.625 L 23.972656 8.144531 L 23.972656 6.558594 L 21.726562 7.558594 Z M 22.527344 10.5625 C 22.527344 10.777344 22.527344 11 22.523438 11.214844 L 23.972656 11.132812 L 23.972656 9.734375 L 22.539062 9.992188 C 22.539062 10.160156 22.535156 10.359375 22.527344 10.566406 Z M 21.160156 15.519531 C 20.773438 15.578125 20.371094 15.632812 20.09375 15.667969 L 23.992188 17.402344 L 23.992188 15.753906 L 22.355469 15.25 C 22.035156 15.375 21.617188 15.441406 21.15625 15.519531 Z M 12.597656 16.675781 L 14.15625 23.988281 L 15.984375 23.988281 L 13.238281 16.308594 C 13.089844 16.488281 12.867188 16.617188 12.589844 16.675781 Z M 3.121094 17.359375 L 0.00390625 19.203125 L 0.00390625 21.386719 L 4.648438 17.796875 C 4.019531 17.722656 3.515625 17.574219 3.121094 17.363281 Z M 9.75 16.585938 C 9.675781 16.507812 9.625 16.429688 9.574219 16.351562 C 9.414062 16.5 9.246094 16.644531 9.070312 16.769531 L 4.480469 23.992188 L 6.589844 23.992188 L 9.863281 16.6875 C 9.820312 16.65625 9.785156 16.628906 9.75 16.589844 Z M 6.082031 17.8125 L 0.46875 23.28125 C 0.984375 23.898438 1.699219 24.046875 2.507812 23.992188 L 7.667969 17.492188 C 7.179688 17.660156 6.648438 17.765625 6.082031 17.8125 Z M 10.683594 16.886719 C 10.648438 16.886719 10.582031 16.898438 10.503906 16.898438 C 10.460938 16.898438 10.425781 16.898438 10.382812 16.898438 L 8.058594 24 L 9.820312 24 L 11.105469 16.847656 C 11.066406 16.847656 11.03125 16.855469 10.988281 16.859375 C 10.835938 16.875 10.71875 16.886719 10.679688 16.890625 Z M 11.53125 16.800781 L 11.0625 23.988281 L 12.679688 23.988281 L 12.207031 16.730469 C 11.984375 16.753906 11.757812 16.777344 11.535156 16.796875 Z M 11.53125 16.800781 "/>
<path style=" stroke:none;fill-rule:nonzero;fill:rgb(100%,100%,100%);fill-opacity:1;" d="M 21.75 14.027344 C 21.617188 13.859375 21.71875 10.410156 21.71875 9.519531 C 21.71875 8.625 21.257812 7.761719 19.832031 7.761719 C 17.941406 7.761719 17.015625 9.320312 17.015625 9.320312 C 17.015625 9.320312 16.582031 8.324219 15.519531 8.324219 C 13.796875 8.324219 12.667969 9.714844 12.667969 9.714844 C 12.667969 9.714844 12.46875 8.789062 12.105469 8.789062 C 11.738281 8.789062 10.320312 9.648438 10.019531 9.882812 C 9.855469 10.011719 9.851562 10.386719 9.882812 10.699219 C 9.359375 9.9375 8.480469 9.714844 7.664062 9.714844 C 6.933594 9.714844 6.164062 10.101562 5.65625 10.417969 C 5.949219 8.425781 6.242188 6.496094 6.242188 6.300781 C 6.242188 5.902344 6.046875 5.832031 5.710938 5.832031 C 5.277344 5.832031 3.023438 6.367188 3.023438 6.929688 C 3.023438 7.230469 3.855469 7.230469 3.71875 7.820312 C 3.585938 8.421875 2.554688 12.964844 2.554688 14.851562 C 2.554688 16.742188 4.144531 17.011719 5.476562 17.011719 C 8.132812 17.011719 9.652344 15.566406 10.164062 13.835938 C 10.222656 14.679688 10.277344 15.445312 10.269531 15.636719 C 10.253906 16.101562 10.449219 16.089844 10.605469 16.070312 C 10.757812 16.050781 12.050781 15.9375 12.378906 15.882812 C 12.710938 15.835938 12.679688 15.667969 12.679688 15.535156 C 12.679688 15.40625 12.8125 11.773438 12.832031 11.078125 C 12.847656 10.382812 13.675781 9.769531 14.222656 9.769531 C 14.765625 9.769531 14.980469 10.371094 14.980469 10.847656 C 14.980469 11.328125 14.851562 14.566406 14.851562 15.046875 C 14.851562 15.523438 14.980469 15.523438 15.160156 15.507812 C 15.347656 15.488281 16.292969 15.355469 16.773438 15.308594 C 17.253906 15.261719 17.152344 15.175781 17.167969 14.941406 C 17.1875 14.710938 17.253906 11.441406 17.273438 10.652344 C 17.289062 9.855469 18.152344 9.160156 18.699219 9.160156 C 19.242188 9.160156 19.496094 9.722656 19.476562 10.253906 C 19.460938 10.785156 19.34375 13.738281 19.34375 14.367188 C 19.34375 14.761719 19.410156 14.929688 19.710938 14.894531 C 20.011719 14.859375 22.167969 14.59375 22.167969 14.433594 C 22.167969 14.265625 21.90625 14.199219 21.765625 14.039062 Z M 6.070312 15.980469 C 5.46875 15.980469 5.039062 15.648438 5.039062 14.917969 C 5.039062 14.660156 5.1875 13.570312 5.375 12.246094 C 5.582031 11.238281 6.578125 10.835938 6.925781 10.835938 C 7.421875 10.835938 7.988281 11.136719 7.988281 12.726562 C 7.988281 14.75 6.664062 15.972656 6.0625 15.972656 Z M 6.070312 15.980469 "/>
<path style=" stroke:none;fill-rule:nonzero;fill:rgb(96.862745%,56.078431%,11.764706%);fill-opacity:1;" d="M 11.722656 14.558594 C 11.679688 14.492188 11.503906 14.3125 11.265625 14.074219 C 11.488281 13.816406 11.636719 13.515625 11.636719 13.199219 C 11.636719 12.71875 11.554688 12.484375 11.308594 12.484375 C 11.0625 12.484375 10.859375 12.703125 10.859375 12.851562 C 10.859375 13 11.105469 13.152344 11.074219 13.347656 C 11.0625 13.421875 11.019531 13.570312 10.9375 13.738281 C 10.3125 13.097656 9.550781 12.246094 9.550781 11.753906 C 9.550781 11.226562 9.765625 11.191406 9.964844 11.191406 C 10.164062 11.191406 10.246094 11.453125 10.445312 11.453125 C 10.613281 11.453125 10.828125 11.351562 10.828125 11.191406 C 10.828125 11.027344 10.527344 10.730469 10.03125 10.730469 C 9.535156 10.730469 8.886719 11.027344 8.886719 11.875 C 8.886719 12.078125 9.019531 12.347656 9.210938 12.648438 C 8.953125 12.828125 8.484375 13.214844 8.484375 13.730469 C 8.484375 14.445312 9.199219 14.90625 9.761719 14.90625 C 10.019531 14.90625 10.445312 14.746094 10.820312 14.476562 C 11.003906 14.648438 11.121094 14.757812 11.121094 14.757812 L 11.589844 14.757812 C 11.769531 14.757812 11.871094 14.804688 11.722656 14.558594 Z M 9.234375 13.613281 C 9.234375 13.355469 9.347656 13.125 9.449219 12.964844 C 9.785156 13.402344 10.203125 13.859375 10.550781 14.195312 C 10.402344 14.296875 10.214844 14.367188 9.984375 14.367188 C 9.570312 14.367188 9.234375 14.085938 9.234375 13.605469 Z M 9.234375 13.613281 "/>
</g>
</svg>
