<svg width="24" height="24" viewBox="0 0 24 24" fill="none" xmlns="http://www.w3.org/2000/svg">
<rect width="24" height="24" fill="#00B1DD"/>
<path d="M14.557 11.9862H18.4616C18.4629 10.9444 18.3231 9.90734 18.0462 8.90309C17.8771 8.29331 17.5691 7.73097 17.1463 7.26014C16.7235 6.78931 16.1974 6.42277 15.6093 6.18925C13.2781 5.33975 10.722 5.33975 8.39086 6.18925C7.80713 6.42055 7.28452 6.78317 6.86352 7.249C6.44252 7.71482 6.13444 8.27133 5.96316 8.8754C5.3968 10.9106 5.3968 13.0618 5.96316 15.0969C6.13068 15.7061 6.43707 16.2681 6.85828 16.739C7.27948 17.2098 7.80406 17.5767 8.39086 17.8108C10.722 18.6603 13.2781 18.6603 15.6093 17.8108C16.1974 17.5773 16.7235 17.2107 17.1463 16.7399C17.5691 16.2691 17.8771 15.7067 18.0462 15.0969C18.0924 14.9308 18.1385 14.7554 18.1755 14.5708L14.4832 12.7985C14.4464 13.0363 14.3908 13.2709 14.317 13.5C14.2251 13.8233 14.0468 14.1153 13.8012 14.3447C13.5555 14.5741 13.252 14.732 12.9232 14.8016C12.6187 14.8587 12.3099 14.8895 12.0001 14.8939C11.6903 14.8905 11.3814 14.8596 11.077 14.8016C10.7465 14.7335 10.441 14.5762 10.1937 14.3468C9.94629 14.1173 9.76654 13.8245 9.67393 13.5C9.37837 12.5124 9.37837 11.4599 9.67393 10.4723C9.77367 10.1564 9.95655 9.87321 10.2034 9.65233C10.4503 9.43146 10.752 9.28107 11.077 9.21694C11.3813 9.15847 11.6902 9.12757 12.0001 9.12463C12.3099 9.12811 12.6188 9.159 12.9232 9.21694C13.252 9.28647 13.5555 9.44444 13.8012 9.6738C14.0468 9.90316 14.2251 10.1952 14.317 10.5185C14.4691 10.9931 14.55 11.4878 14.557 11.9862" fill="white"/>
</svg>
