<?xml version="1.0" encoding="UTF-8"?>
<svg xmlns="http://www.w3.org/2000/svg" xmlns:xlink="http://www.w3.org/1999/xlink" width="24px" height="24px" viewBox="0 0 24 24" version="1.1">
<defs>
<clipPath id="clip1">
  <path d="M 0 0 L 12 0 L 12 24 L 0 24 Z M 0 0 "/>
</clipPath>
<clipPath id="clip2">
  <path d="M 1.996094 0 L 12 0 L 12 24 L 1.996094 24 C 0.894531 24 0 23.105469 0 22.003906 L 0 1.996094 C 0 0.894531 0.894531 0 1.996094 0 Z M 1.996094 0 "/>
</clipPath>
<clipPath id="clip3">
  <path d="M 12 0 L 24 0 L 24 24 L 12 24 Z M 12 0 "/>
</clipPath>
<clipPath id="clip4">
  <path d="M 22.003906 24 L 12 24 L 12 0 L 22.003906 0 C 23.105469 0 24 0.894531 24 1.996094 L 24 22.003906 C 24 23.105469 23.105469 24 22.003906 24 Z M 22.003906 24 "/>
</clipPath>
</defs>
<g id="surface1">
<path style=" stroke:none;fill-rule:nonzero;fill:rgb(62.352941%,86.666667%,97.647059%);fill-opacity:1;" d="M 1.996094 0 L 12 0 L 12 24 L 1.996094 24 C 0.894531 24 0 23.105469 0 22.003906 L 0 1.996094 C 0 0.894531 0.894531 0 1.996094 0 Z M 1.996094 0 "/>
<g clip-path="url(#clip1)" clip-rule="nonzero">
<g clip-path="url(#clip2)" clip-rule="nonzero">
<rect x="0" y="0" width="24" height="24" style="fill:rgb(62.352941%,86.666667%,97.647059%);fill-opacity:1;stroke:none;"/>
</g>
</g>
<path style=" stroke:none;fill-rule:nonzero;fill:rgb(93.333333%,20.392157%,14.117647%);fill-opacity:1;" d="M 22.003906 24 L 12 24 L 12 0 L 22.003906 0 C 23.105469 0 24 0.894531 24 1.996094 L 24 22.003906 C 24 23.105469 23.105469 24 22.003906 24 Z M 22.003906 24 "/>
<g clip-path="url(#clip3)" clip-rule="nonzero">
<g clip-path="url(#clip4)" clip-rule="nonzero">
<rect x="0" y="0" width="24" height="24" style="fill:rgb(93.333333%,20.392157%,14.117647%);fill-opacity:1;stroke:none;"/>
</g>
</g>
<path style=" stroke:none;fill-rule:nonzero;fill:rgb(100%,100%,100%);fill-opacity:1;" d="M 17.957031 10.757812 C 16.546875 10.757812 15.925781 12.085938 15.925781 13.546875 C 15.925781 15.011719 16.546875 16.320312 17.957031 16.320312 C 19.367188 16.320312 19.992188 14.992188 19.992188 13.542969 C 19.992188 12.089844 19.367188 10.753906 17.957031 10.753906 Z M 13.621094 5.878906 L 16.007812 5.878906 L 16.007812 10.253906 L 16.039062 10.253906 C 16.625 9.359375 17.699219 8.957031 18.78125 8.957031 C 20.515625 8.957031 22.378906 10.355469 22.378906 13.535156 C 22.378906 16.714844 20.507812 18.125 18.78125 18.125 C 17.503906 18.125 16.441406 17.734375 15.925781 16.78125 L 15.886719 16.78125 L 15.886719 17.890625 L 13.621094 17.890625 Z M 13.621094 5.878906 "/>
<path style=" stroke:none;fill-rule:nonzero;fill:rgb(93.333333%,20.392157%,14.117647%);fill-opacity:1;" d="M 8.65625 17.554688 L 7.296875 17.554688 L 8.417969 12.265625 C 8.652344 11.164062 8.496094 10.453125 7.195312 10.453125 C 6.078125 10.453125 4.800781 11.105469 4.363281 13.144531 L 3.425781 17.554688 L 2.070312 17.554688 L 4.433594 6.445312 L 5.796875 6.445312 L 4.925781 10.546875 L 4.957031 10.546875 C 5.449219 10.039062 6.300781 9.234375 7.601562 9.234375 C 8.902344 9.234375 10.324219 9.742188 9.835938 12.046875 L 8.664062 17.554688 Z M 8.65625 17.554688 "/>
</g>
</svg>
