<svg xmlns="http://www.w3.org/2000/svg" width="24" height="24" viewBox="0 0 24 24">
    <g fill="none">
        <rect width="23.852" height="23.852" x=".075" y=".075" fill="#FFF8E2" rx="2"/>
        <path fill="#FBC010" d="M16.911 19.21c-1.392.503-2.63-.425-2.63-.425s.348-1.5 1.74-2.01c1.392-.51 2.63.424 2.63.424s-.348 1.47-1.74 2.011m3.673-7.038s-1.35-.696-2.668.04c-1.276.735-1.35 2.281-1.35 2.281s1.35.696 2.667-.039c1.276-.735 1.35-2.282 1.35-2.282m-5.838 3.402c-.618 1.35-2.127 1.548-2.127 1.548s-.812-1.276-.192-2.629c.62-1.353 2.124-1.546 2.124-1.546s.813 1.275.193 2.628m-9.316 1.624s.348 1.5 1.74 2.011c1.392.512 2.63-.425 2.63-.425s-.349-1.5-1.74-2.01c-1.432-.505-2.63.424-2.63.424m.657-4.988c1.277.736 1.35 2.282 1.35 2.282s-1.35.696-2.667-.039c-1.277-.735-1.35-2.282-1.35-2.282s1.392-.696 2.668.04m1.7-2.476s-.309 1.5.735 2.55c1.044 1.05 2.55.736 2.55.736s.31-1.5-.734-2.55c-1.043-1.05-2.55-.736-2.55-.736m5.49-2.236C13.277 9 12 9.815 12 9.815S10.723 9 10.723 7.5 12 5.173 12 5.173c-.039 0 1.277.814 1.277 2.321m2.55 3.325c0 .599-.485 1.083-1.084 1.083-.598 0-1.082-.484-1.082-1.082.012-.593.49-1.07 1.082-1.084.288 0 .564.114.767.317.203.203.317.479.317.766m-4.877 4.446c.001.287-.112.563-.314.766-.202.203-.476.318-.763.319-.593-.013-1.07-.49-1.083-1.083 0-.287.114-.563.317-.766.203-.203.479-.317.766-.317.59.016 1.064.492 1.077 1.082"/>
    </g>
</svg>
