<svg xmlns="http://www.w3.org/2000/svg" width="24" height="24" viewBox="0 0 24 24">
    <g fill="none" fill-rule="evenodd">
        <g fill-rule="nonzero">
            <g>
                <g>
                    <g>
                        <g transform="translate(-1062 -763) translate(150 649) translate(20 94) translate(858) translate(34 20)">
                            <rect width="24" height="24" fill="#4d216d" rx="2"/>
                            <path fill="#FFF" d="M11.982 19.305c1.891.01 3.71-.733 5.05-2.067 1.34-1.335 2.094-3.148 2.093-5.04 0-.944-.29-2.177-.29-1.85 0 2.648-2.466 4.823-5.077 4.46-1.993-.29-4.2-2.1-3.807-4.966.393-2.867 2.901-3.992 4.678-3.736 2.864.4 3.48 2.61 2.61 3.626-.87 1.2-2.647.471-2.647-.87-.004-.458.212-.89.58-1.161-1.486-.435-2.973.726-3.19 2.25-.2 1.53.871 2.937 2.4 3.15 2.538.363 4.026-1.704 4.026-3.518 0-2.139-2.285-4.567-6.383-4.567-3.925.039-7.15 3.194-7.15 7.146 0 3.915 3.19 7.143 7.107 7.143z"/>
                        </g>
                    </g>
                </g>
            </g>
        </g>
    </g>
</svg>
