<svg xmlns="http://www.w3.org/2000/svg" width="24" height="24" viewBox="0 0 24 24">
    <g fill="none" fill-rule="evenodd">
        <rect width="24" height="24" fill="#FB8717" fill-rule="nonzero" rx="2"/>
        <path fill="#FFF" d="M7.976 18.237c3.466 1.773 8.4.741 8.4-3.774 0-4.156-6.542-3.888-6.542-6.45 0-1.032.9-1.728 2.063-1.728 1.031 0 1.816.381 2.643 1.035.226.177.372.29.556.29.228 0 .29-.15.29-.36V5.949c0-.204-.041-.318-.228-.406-1.056-.395-2.174-.593-3.3-.586-2.745 0-4.232 1.844-4.232 3.933 0 4.538 6.44 3.6 6.44 6.674 0 1.864-2.477 3.166-5.347.987-.268-.202-.391-.313-.577-.313-.351 0-.414.202-.414.404v1.145c-.02.187.08.367.249.45h-.002z"/>
    </g>
</svg>
